<?xml version="1.0"?>
<svg version="1.1" xmlns="http://www.w3.org/2000/svg" width="400px" height="200px" style=""><path fill="#" d="M180,106.75l11.5,0l0,4l-11.5,0l0,12.25l11.5,0l1-5l3.25,0l0,9l-25.25,0l0-3l4.25-1l0-27l-4.25-1l0-2.75l9.5-0.25l15.25,0l0,8.5l-3.25,0l-1.25-4.5l-10.75,0l0,10.75z M235.18,123l0-25l-1.5,3.75l-7.75,15.75l-4,0.25l-7.75-16.25l-1.25-3.5l0,25l4.75,1l0,3l-13.5,0l0-3l4.25-1l0-27l-4.25-1l0-2.75l11.25-0.25l9.05,20l9.45-19.75l10.5-0.25l0,3l-4.25,1l0,27l4.25,1l0,3l-14,0l0-3z M256.11,123l0-27l-4.25-1l0-2.75l9.5-0.25l5.25,0c7.5,0,11.5,4,11.5,10.25c0,7.75-5,11.75-13.5,11.75l-3.25,0l0,9l4.25,1l0,3l-13.75,0l0-3z M261.36,110l3.25,0c5.5,0,8.25-2.5,8.25-7c0-4-2.25-7-6.5-7l-5,0l0,14z"/><path fill="#" d="M282.8935546875,100.1171875q0-1.025390625,0.6298828125-1.9482421875t1.56005859375-1.60400390625t2.02880859375-1.083984375t2.021484375-0.40283203125q1.083984375,0,1.92626953125,0.38818359375t1.42822265625,1.04736328125t0.90087890625,1.57470703125t0.31494140625,1.94091796875q0,1.8603515625-0.71044921875,3.6328125t-1.669921875,3.46435546875t-1.9775390625,3.369140625t-1.67724609375,3.36181640625l1.025390625,0.029296875q0.4541015625,0,0.91552734375-0.029296875t0.88623046875-0.17578125q0.5126953125-0.4833984375,1.34765625-0.4833984375q0.3369140625,0,0.81298828125,0.087890625t0.56396484375,0.5126953125q-0.029296875,0-0.029296875,0.1171875q0,0.5712890625-0.6884765625,0.84228515625t-1.60400390625,0.37353515625t-1.81640625,0.1025390625l-1.29638671875,0l-0.76171875,0t-1.0693359375-0.0732421875t-0.95947265625-0.2197265625t-0.50537109375-0.4833984375q0.6298828125-1.8017578125,1.7431640625-3.6328125t2.21923828125-3.65478515625t1.9189453125-3.66943359375t0.81298828125-3.7353515625q0-0.3662109375-0.12451171875-0.9814453125t-0.4248046875-1.201171875t-0.8056640625-0.98876953125t-1.29638671875-0.37353515625q-0.7177734375,0.05859375-1.3330078125,0.47607421875t-1.10595703125,1.01806640625t-0.8349609375,1.31103515625t-0.50537109375,1.34033203125q0,0.234375,0.09521484375,0.47607421875t0.09521484375,0.47607421875t-0.31494140625,0.30029296875t-0.47607421875,0.06591796875q-0.6005859375,0-0.93017578125-0.498046875t-0.32958984375-1.0693359375z M290.3349609375,113.76953125q0.1171875,0,0.1611328125-0.029296875q-0.1025390625,0-0.1611328125,0.029296875z"/></svg>
